<svg width="112" height="112" viewBox="0 0 112 112" fill="none" xmlns="http://www.w3.org/2000/svg">
<path d="M3.86207 34.7587H0V38.6207H3.86207V34.7587Z" fill="white"/>
<path d="M3.86207 46.3448H0V50.2069H3.86207V46.3448Z" fill="white"/>
<path d="M3.86207 50.2069H0V54.069H3.86207V50.2069Z" fill="white"/>
<path d="M3.86207 65.6552H0V69.5172H3.86207V65.6552Z" fill="white"/>
<path d="M3.86207 69.5172H0V73.3793H3.86207V69.5172Z" fill="white"/>
<path d="M3.86207 73.3793H0V77.2413H3.86207V73.3793Z" fill="white"/>
<path d="M7.72437 38.6207H3.8623V42.4828H7.72437V38.6207Z" fill="white"/>
<path d="M7.72437 61.7931H3.8623V65.6552H7.72437V61.7931Z" fill="white"/>
<path d="M7.72437 77.2413H3.8623V81.1034H7.72437V77.2413Z" fill="white"/>
<path d="M11.5862 30.8966H7.72412V34.7587H11.5862V30.8966Z" fill="white"/>
<path d="M11.5862 38.6207H7.72412V42.4828H11.5862V38.6207Z" fill="white"/>
<path d="M11.5862 57.931H7.72412V61.7931H11.5862V57.931Z" fill="white"/>
<path d="M11.5862 61.7931H7.72412V65.6552H11.5862V61.7931Z" fill="white"/>
<path d="M11.5862 65.6552H7.72412V69.5172H11.5862V65.6552Z" fill="white"/>
<path d="M11.5862 69.5172H7.72412V73.3793H11.5862V69.5172Z" fill="white"/>
<path d="M11.5862 73.3793H7.72412V77.2413H11.5862V73.3793Z" fill="white"/>
<path d="M11.5862 77.2413H7.72412V81.1034H11.5862V77.2413Z" fill="white"/>
<path d="M15.4485 50.2069H11.5864V54.069H15.4485V50.2069Z" fill="white"/>
<path d="M15.4485 54.069H11.5864V57.931H15.4485V54.069Z" fill="white"/>
<path d="M15.4485 61.7931H11.5864V65.6552H15.4485V61.7931Z" fill="white"/>
<path d="M15.4485 69.5172H11.5864V73.3793H15.4485V69.5172Z" fill="white"/>
<path d="M15.4485 73.3793H11.5864V77.2413H15.4485V73.3793Z" fill="white"/>
<path d="M19.3103 30.8966H15.4482V34.7587H19.3103V30.8966Z" fill="white"/>
<path d="M19.3103 34.7587H15.4482V38.6207H19.3103V34.7587Z" fill="white"/>
<path d="M19.3103 38.6207H15.4482V42.4828H19.3103V38.6207Z" fill="white"/>
<path d="M19.3103 42.4828H15.4482V46.3449H19.3103V42.4828Z" fill="white"/>
<path d="M19.3103 46.3448H15.4482V50.2069H19.3103V46.3448Z" fill="white"/>
<path d="M19.3103 57.931H15.4482V61.7931H19.3103V57.931Z" fill="white"/>
<path d="M19.3103 61.7931H15.4482V65.6552H19.3103V61.7931Z" fill="white"/>
<path d="M19.3103 77.2413H15.4482V81.1034H19.3103V77.2413Z" fill="white"/>
<path d="M23.1726 30.8966H19.3105V34.7587H23.1726V30.8966Z" fill="white"/>
<path d="M23.1726 34.7587H19.3105V38.6207H23.1726V34.7587Z" fill="white"/>
<path d="M23.1726 38.6207H19.3105V42.4828H23.1726V38.6207Z" fill="white"/>
<path d="M23.1726 50.2069H19.3105V54.069H23.1726V50.2069Z" fill="white"/>
<path d="M23.1726 54.069H19.3105V57.931H23.1726V54.069Z" fill="white"/>
<path d="M23.1726 57.931H19.3105V61.7931H23.1726V57.931Z" fill="white"/>
<path d="M23.1726 61.7931H19.3105V65.6552H23.1726V61.7931Z" fill="white"/>
<path d="M23.1726 69.5172H19.3105V73.3793H23.1726V69.5172Z" fill="white"/>
<path d="M23.1726 73.3793H19.3105V77.2413H23.1726V73.3793Z" fill="white"/>
<path d="M27.0344 30.8966H23.1724V34.7587H27.0344V30.8966Z" fill="white"/>
<path d="M27.0344 38.6207H23.1724V42.4828H27.0344V38.6207Z" fill="white"/>
<path d="M27.0344 46.3448H23.1724V50.2069H27.0344V46.3448Z" fill="white"/>
<path d="M27.0344 54.069H23.1724V57.931H27.0344V54.069Z" fill="white"/>
<path d="M27.0344 61.7931H23.1724V65.6552H27.0344V61.7931Z" fill="white"/>
<path d="M27.0344 69.5172H23.1724V73.3793H27.0344V69.5172Z" fill="white"/>
<path d="M27.0344 77.2413H23.1724V81.1034H27.0344V77.2413Z" fill="white"/>
<path d="M30.8967 34.7587H27.0347V38.6207H30.8967V34.7587Z" fill="white"/>
<path d="M30.8967 38.6207H27.0347V42.4828H30.8967V38.6207Z" fill="white"/>
<path d="M30.8967 54.069H27.0347V57.931H30.8967V54.069Z" fill="white"/>
<path d="M30.8967 57.931H27.0347V61.7931H30.8967V57.931Z" fill="white"/>
<path d="M30.8967 61.7931H27.0347V65.6552H30.8967V61.7931Z" fill="white"/>
<path d="M30.8967 65.6552H27.0347V69.5172H30.8967V65.6552Z" fill="white"/>
<path d="M30.8967 69.5172H27.0347V73.3793H30.8967V69.5172Z" fill="white"/>
<path d="M30.8967 77.2413H27.0347V81.1034H30.8967V77.2413Z" fill="white"/>
<path d="M34.7586 3.86206H30.8965V7.72413H34.7586V3.86206Z" fill="white"/>
<path d="M34.7586 15.4482H30.8965V19.3103H34.7586V15.4482Z" fill="white"/>
<path d="M34.7586 23.1724H30.8965V27.0344H34.7586V23.1724Z" fill="white"/>
<path d="M34.7586 30.8966H30.8965V34.7587H34.7586V30.8966Z" fill="white"/>
<path d="M34.7586 38.6207H30.8965V42.4828H34.7586V38.6207Z" fill="white"/>
<path d="M34.7586 46.3448H30.8965V50.2069H34.7586V46.3448Z" fill="white"/>
<path d="M34.7586 54.069H30.8965V57.931H34.7586V54.069Z" fill="white"/>
<path d="M34.7586 57.931H30.8965V61.7931H34.7586V57.931Z" fill="white"/>
<path d="M34.7586 61.7931H30.8965V65.6552H34.7586V61.7931Z" fill="white"/>
<path d="M34.7586 69.5172H30.8965V73.3793H34.7586V69.5172Z" fill="white"/>
<path d="M34.7586 73.3793H30.8965V77.2413H34.7586V73.3793Z" fill="white"/>
<path d="M34.7586 81.1035H30.8965V84.9656H34.7586V81.1035Z" fill="white"/>
<path d="M34.7586 88.8276H30.8965V92.6897H34.7586V88.8276Z" fill="white"/>
<path d="M34.7586 92.6897H30.8965V96.5518H34.7586V92.6897Z" fill="white"/>
<path d="M34.7586 100.414H30.8965V104.276H34.7586V100.414Z" fill="white"/>
<path d="M38.6209 3.86206H34.7588V7.72413H38.6209V3.86206Z" fill="white"/>
<path d="M38.6209 7.72412H34.7588V11.5862H38.6209V7.72412Z" fill="white"/>
<path d="M38.6209 27.0344H34.7588V30.8965H38.6209V27.0344Z" fill="white"/>
<path d="M38.6209 30.8966H34.7588V34.7587H38.6209V30.8966Z" fill="white"/>
<path d="M38.6209 34.7587H34.7588V38.6207H38.6209V34.7587Z" fill="white"/>
<path d="M38.6209 38.6207H34.7588V42.4828H38.6209V38.6207Z" fill="white"/>
<path d="M38.6209 50.2069H34.7588V54.069H38.6209V50.2069Z" fill="white"/>
<path d="M38.6209 54.069H34.7588V57.931H38.6209V54.069Z" fill="white"/>
<path d="M38.6209 57.931H34.7588V61.7931H38.6209V57.931Z" fill="white"/>
<path d="M38.6209 73.3793H34.7588V77.2413H38.6209V73.3793Z" fill="white"/>
<path d="M38.6209 77.2413H34.7588V81.1034H38.6209V77.2413Z" fill="white"/>
<path d="M38.6209 84.9656H34.7588V88.8276H38.6209V84.9656Z" fill="white"/>
<path d="M38.6209 88.8276H34.7588V92.6897H38.6209V88.8276Z" fill="white"/>
<path d="M38.6209 92.6897H34.7588V96.5518H38.6209V92.6897Z" fill="white"/>
<path d="M38.6209 104.276H34.7588V108.138H38.6209V104.276Z" fill="white"/>
<path d="M38.6209 108.138H34.7588V112H38.6209V108.138Z" fill="white"/>
<path d="M42.4827 3.86206H38.6206V7.72413H42.4827V3.86206Z" fill="white"/>
<path d="M42.4827 15.4482H38.6206V19.3103H42.4827V15.4482Z" fill="white"/>
<path d="M42.4827 19.3103H38.6206V23.1724H42.4827V19.3103Z" fill="white"/>
<path d="M42.4827 23.1724H38.6206V27.0344H42.4827V23.1724Z" fill="white"/>
<path d="M42.4827 30.8966H38.6206V34.7587H42.4827V30.8966Z" fill="white"/>
<path d="M42.4827 42.4828H38.6206V46.3449H42.4827V42.4828Z" fill="white"/>
<path d="M42.4827 65.6552H38.6206V69.5172H42.4827V65.6552Z" fill="white"/>
<path d="M42.4827 77.2413H38.6206V81.1034H42.4827V77.2413Z" fill="white"/>
<path d="M42.4827 81.1035H38.6206V84.9656H42.4827V81.1035Z" fill="white"/>
<path d="M42.4827 96.5518H38.6206V100.414H42.4827V96.5518Z" fill="white"/>
<path d="M42.4827 100.414H38.6206V104.276H42.4827V100.414Z" fill="white"/>
<path d="M42.4827 108.138H38.6206V112H42.4827V108.138Z" fill="white"/>
<path d="M46.345 0H42.4829V3.86207H46.345V0Z" fill="white"/>
<path d="M46.345 3.86206H42.4829V7.72413H46.345V3.86206Z" fill="white"/>
<path d="M46.345 7.72412H42.4829V11.5862H46.345V7.72412Z" fill="white"/>
<path d="M46.345 19.3103H42.4829V23.1724H46.345V19.3103Z" fill="white"/>
<path d="M46.345 50.2069H42.4829V54.069H46.345V50.2069Z" fill="white"/>
<path d="M46.345 54.069H42.4829V57.931H46.345V54.069Z" fill="white"/>
<path d="M46.345 61.7931H42.4829V65.6552H46.345V61.7931Z" fill="white"/>
<path d="M46.345 65.6552H42.4829V69.5172H46.345V65.6552Z" fill="white"/>
<path d="M46.345 69.5172H42.4829V73.3793H46.345V69.5172Z" fill="white"/>
<path d="M46.345 81.1035H42.4829V84.9656H46.345V81.1035Z" fill="white"/>
<path d="M46.345 88.8276H42.4829V92.6897H46.345V88.8276Z" fill="white"/>
<path d="M46.345 92.6897H42.4829V96.5518H46.345V92.6897Z" fill="white"/>
<path d="M46.345 96.5518H42.4829V100.414H46.345V96.5518Z" fill="white"/>
<path d="M46.345 104.276H42.4829V108.138H46.345V104.276Z" fill="white"/>
<path d="M46.345 108.138H42.4829V112H46.345V108.138Z" fill="white"/>
<path d="M50.2068 0H46.3447V3.86207H50.2068V0Z" fill="white"/>
<path d="M50.2068 19.3103H46.3447V23.1724H50.2068V19.3103Z" fill="white"/>
<path d="M50.2068 23.1724H46.3447V27.0344H50.2068V23.1724Z" fill="white"/>
<path d="M50.2068 27.0344H46.3447V30.8965H50.2068V27.0344Z" fill="white"/>
<path d="M50.2068 30.8966H46.3447V34.7587H50.2068V30.8966Z" fill="white"/>
<path d="M50.2068 34.7587H46.3447V38.6207H50.2068V34.7587Z" fill="white"/>
<path d="M50.2068 42.4828H46.3447V46.3449H50.2068V42.4828Z" fill="white"/>
<path d="M50.2068 46.3448H46.3447V50.2069H50.2068V46.3448Z" fill="white"/>
<path d="M50.2068 57.931H46.3447V61.7931H50.2068V57.931Z" fill="white"/>
<path d="M50.2068 61.7931H46.3447V65.6552H50.2068V61.7931Z" fill="white"/>
<path d="M50.2068 65.6552H46.3447V69.5172H50.2068V65.6552Z" fill="white"/>
<path d="M50.2068 73.3793H46.3447V77.2413H50.2068V73.3793Z" fill="white"/>
<path d="M50.2068 77.2413H46.3447V81.1034H50.2068V77.2413Z" fill="white"/>
<path d="M50.2068 88.8276H46.3447V92.6897H50.2068V88.8276Z" fill="white"/>
<path d="M50.2068 108.138H46.3447V112H50.2068V108.138Z" fill="white"/>
<path d="M54.0691 3.86206H50.207V7.72413H54.0691V3.86206Z" fill="white"/>
<path d="M54.0691 7.72412H50.207V11.5862H54.0691V7.72412Z" fill="white"/>
<path d="M54.0691 15.4482H50.207V19.3103H54.0691V15.4482Z" fill="white"/>
<path d="M54.0691 27.0344H50.207V30.8965H54.0691V27.0344Z" fill="white"/>
<path d="M54.0691 30.8966H50.207V34.7587H54.0691V30.8966Z" fill="white"/>
<path d="M54.0691 34.7587H50.207V38.6207H54.0691V34.7587Z" fill="white"/>
<path d="M54.0691 38.6207H50.207V42.4828H54.0691V38.6207Z" fill="white"/>
<path d="M54.0691 50.2069H50.207V54.069H54.0691V50.2069Z" fill="white"/>
<path d="M54.0691 57.931H50.207V61.7931H54.0691V57.931Z" fill="white"/>
<path d="M54.0691 65.6552H50.207V69.5172H54.0691V65.6552Z" fill="white"/>
<path d="M54.0691 84.9656H50.207V88.8276H54.0691V84.9656Z" fill="white"/>
<path d="M54.0691 92.6897H50.207V96.5518H54.0691V92.6897Z" fill="white"/>
<path d="M54.0691 100.414H50.207V104.276H54.0691V100.414Z" fill="white"/>
<path d="M54.0691 108.138H50.207V112H54.0691V108.138Z" fill="white"/>
<path d="M57.9309 7.72412H54.0688V11.5862H57.9309V7.72412Z" fill="white"/>
<path d="M57.9309 11.5862H54.0688V15.4483H57.9309V11.5862Z" fill="white"/>
<path d="M57.9309 19.3103H54.0688V23.1724H57.9309V19.3103Z" fill="white"/>
<path d="M57.9309 23.1724H54.0688V27.0344H57.9309V23.1724Z" fill="white"/>
<path d="M57.9309 42.4828H54.0688V46.3449H57.9309V42.4828Z" fill="white"/>
<path d="M57.9309 46.3448H54.0688V50.2069H57.9309V46.3448Z" fill="white"/>
<path d="M57.9309 50.2069H54.0688V54.069H57.9309V50.2069Z" fill="white"/>
<path d="M57.9309 69.5172H54.0688V73.3793H57.9309V69.5172Z" fill="white"/>
<path d="M57.9309 77.2413H54.0688V81.1034H57.9309V77.2413Z" fill="white"/>
<path d="M57.9309 81.1035H54.0688V84.9656H57.9309V81.1035Z" fill="white"/>
<path d="M57.9309 92.6897H54.0688V96.5518H57.9309V92.6897Z" fill="white"/>
<path d="M57.9309 104.276H54.0688V108.138H57.9309V104.276Z" fill="white"/>
<path d="M57.9309 108.138H54.0688V112H57.9309V108.138Z" fill="white"/>
<path d="M61.7932 0H57.9312V3.86207H61.7932V0Z" fill="white"/>
<path d="M61.7932 11.5862H57.9312V15.4483H61.7932V11.5862Z" fill="white"/>
<path d="M61.7932 27.0344H57.9312V30.8965H61.7932V27.0344Z" fill="white"/>
<path d="M61.7932 34.7587H57.9312V38.6207H61.7932V34.7587Z" fill="white"/>
<path d="M61.7932 38.6207H57.9312V42.4828H61.7932V38.6207Z" fill="white"/>
<path d="M61.7932 42.4828H57.9312V46.3449H61.7932V42.4828Z" fill="white"/>
<path d="M61.7932 57.931H57.9312V61.7931H61.7932V57.931Z" fill="white"/>
<path d="M61.7932 61.7931H57.9312V65.6552H61.7932V61.7931Z" fill="white"/>
<path d="M61.7932 77.2413H57.9312V81.1034H61.7932V77.2413Z" fill="white"/>
<path d="M61.7932 84.9656H57.9312V88.8276H61.7932V84.9656Z" fill="white"/>
<path d="M61.7932 88.8276H57.9312V92.6897H61.7932V88.8276Z" fill="white"/>
<path d="M61.7932 96.5518H57.9312V100.414H61.7932V96.5518Z" fill="white"/>
<path d="M61.7932 108.138H57.9312V112H61.7932V108.138Z" fill="white"/>
<path d="M65.655 0H61.793V3.86207H65.655V0Z" fill="white"/>
<path d="M65.655 7.72412H61.793V11.5862H65.655V7.72412Z" fill="white"/>
<path d="M65.655 11.5862H61.793V15.4483H65.655V11.5862Z" fill="white"/>
<path d="M65.655 19.3103H61.793V23.1724H65.655V19.3103Z" fill="white"/>
<path d="M65.655 23.1724H61.793V27.0344H65.655V23.1724Z" fill="white"/>
<path d="M65.655 42.4828H61.793V46.3449H65.655V42.4828Z" fill="white"/>
<path d="M65.655 57.931H61.793V61.7931H65.655V57.931Z" fill="white"/>
<path d="M65.655 61.7931H61.793V65.6552H65.655V61.7931Z" fill="white"/>
<path d="M65.655 77.2413H61.793V81.1034H65.655V77.2413Z" fill="white"/>
<path d="M65.655 81.1035H61.793V84.9656H65.655V81.1035Z" fill="white"/>
<path d="M65.655 92.6897H61.793V96.5518H65.655V92.6897Z" fill="white"/>
<path d="M65.655 104.276H61.793V108.138H65.655V104.276Z" fill="white"/>
<path d="M65.655 108.138H61.793V112H65.655V108.138Z" fill="white"/>
<path d="M69.5173 0H65.6553V3.86207H69.5173V0Z" fill="white"/>
<path d="M69.5173 7.72412H65.6553V11.5862H69.5173V7.72412Z" fill="white"/>
<path d="M69.5173 27.0344H65.6553V30.8965H69.5173V27.0344Z" fill="white"/>
<path d="M69.5173 34.7587H65.6553V38.6207H69.5173V34.7587Z" fill="white"/>
<path d="M69.5173 54.069H65.6553V57.931H69.5173V54.069Z" fill="white"/>
<path d="M69.5173 69.5172H65.6553V73.3793H69.5173V69.5172Z" fill="white"/>
<path d="M69.5173 73.3793H65.6553V77.2413H69.5173V73.3793Z" fill="white"/>
<path d="M69.5173 81.1035H65.6553V84.9656H69.5173V81.1035Z" fill="white"/>
<path d="M69.5173 84.9656H65.6553V88.8276H69.5173V84.9656Z" fill="white"/>
<path d="M69.5173 88.8276H65.6553V92.6897H69.5173V88.8276Z" fill="white"/>
<path d="M69.5173 92.6897H65.6553V96.5518H69.5173V92.6897Z" fill="white"/>
<path d="M69.5173 100.414H65.6553V104.276H69.5173V100.414Z" fill="white"/>
<path d="M69.5173 108.138H65.6553V112H69.5173V108.138Z" fill="white"/>
<path d="M73.3792 7.72412H69.5171V11.5862H73.3792V7.72412Z" fill="white"/>
<path d="M73.3792 15.4482H69.5171V19.3103H73.3792V15.4482Z" fill="white"/>
<path d="M73.3792 19.3103H69.5171V23.1724H73.3792V19.3103Z" fill="white"/>
<path d="M73.3792 23.1724H69.5171V27.0344H73.3792V23.1724Z" fill="white"/>
<path d="M73.3792 27.0344H69.5171V30.8965H73.3792V27.0344Z" fill="white"/>
<path d="M73.3792 34.7587H69.5171V38.6207H73.3792V34.7587Z" fill="white"/>
<path d="M73.3792 42.4828H69.5171V46.3449H73.3792V42.4828Z" fill="white"/>
<path d="M73.3792 54.069H69.5171V57.931H73.3792V54.069Z" fill="white"/>
<path d="M73.3792 57.931H69.5171V61.7931H73.3792V57.931Z" fill="white"/>
<path d="M73.3792 73.3793H69.5171V77.2413H73.3792V73.3793Z" fill="white"/>
<path d="M73.3792 88.8276H69.5171V92.6897H73.3792V88.8276Z" fill="white"/>
<path d="M73.3792 92.6897H69.5171V96.5518H73.3792V92.6897Z" fill="white"/>
<path d="M73.3792 100.414H69.5171V104.276H73.3792V100.414Z" fill="white"/>
<path d="M73.3792 108.138H69.5171V112H73.3792V108.138Z" fill="white"/>
<path d="M77.2415 11.5862H73.3794V15.4483H77.2415V11.5862Z" fill="white"/>
<path d="M77.2415 19.3103H73.3794V23.1724H77.2415V19.3103Z" fill="white"/>
<path d="M77.2415 34.7587H73.3794V38.6207H77.2415V34.7587Z" fill="white"/>
<path d="M77.2415 57.931H73.3794V61.7931H77.2415V57.931Z" fill="white"/>
<path d="M77.2415 61.7931H73.3794V65.6552H77.2415V61.7931Z" fill="white"/>
<path d="M77.2415 65.6552H73.3794V69.5172H77.2415V65.6552Z" fill="white"/>
<path d="M77.2415 73.3793H73.3794V77.2413H77.2415V73.3793Z" fill="white"/>
<path d="M77.2415 77.2413H73.3794V81.1034H77.2415V77.2413Z" fill="white"/>
<path d="M77.2415 88.8276H73.3794V92.6897H77.2415V88.8276Z" fill="white"/>
<path d="M77.2415 104.276H73.3794V108.138H77.2415V104.276Z" fill="white"/>
<path d="M77.2415 108.138H73.3794V112H77.2415V108.138Z" fill="white"/>
<path d="M81.1033 0H77.2412V3.86207H81.1033V0Z" fill="white"/>
<path d="M81.1033 3.86206H77.2412V7.72413H81.1033V3.86206Z" fill="white"/>
<path d="M81.1033 11.5862H77.2412V15.4483H81.1033V11.5862Z" fill="white"/>
<path d="M81.1033 19.3103H77.2412V23.1724H81.1033V19.3103Z" fill="white"/>
<path d="M81.1033 23.1724H77.2412V27.0344H81.1033V23.1724Z" fill="white"/>
<path d="M81.1033 30.8966H77.2412V34.7587H81.1033V30.8966Z" fill="white"/>
<path d="M81.1033 34.7587H77.2412V38.6207H81.1033V34.7587Z" fill="white"/>
<path d="M81.1033 54.069H77.2412V57.931H81.1033V54.069Z" fill="white"/>
<path d="M81.1033 65.6552H77.2412V69.5172H81.1033V65.6552Z" fill="white"/>
<path d="M81.1033 69.5172H77.2412V73.3793H81.1033V69.5172Z" fill="white"/>
<path d="M81.1033 77.2413H77.2412V81.1034H81.1033V77.2413Z" fill="white"/>
<path d="M81.1033 81.1035H77.2412V84.9656H81.1033V81.1035Z" fill="white"/>
<path d="M81.1033 84.9656H77.2412V88.8276H81.1033V84.9656Z" fill="white"/>
<path d="M81.1033 88.8276H77.2412V92.6897H81.1033V88.8276Z" fill="white"/>
<path d="M81.1033 92.6897H77.2412V96.5518H81.1033V92.6897Z" fill="white"/>
<path d="M81.1033 108.138H77.2412V112H81.1033V108.138Z" fill="white"/>
<path d="M84.9656 30.8966H81.1035V34.7587H84.9656V30.8966Z" fill="white"/>
<path d="M84.9656 38.6207H81.1035V42.4828H84.9656V38.6207Z" fill="white"/>
<path d="M84.9656 42.4828H81.1035V46.3449H84.9656V42.4828Z" fill="white"/>
<path d="M84.9656 46.3448H81.1035V50.2069H84.9656V46.3448Z" fill="white"/>
<path d="M84.9656 54.069H81.1035V57.931H84.9656V54.069Z" fill="white"/>
<path d="M84.9656 57.931H81.1035V61.7931H84.9656V57.931Z" fill="white"/>
<path d="M84.9656 61.7931H81.1035V65.6552H84.9656V61.7931Z" fill="white"/>
<path d="M84.9656 69.5172H81.1035V73.3793H84.9656V69.5172Z" fill="white"/>
<path d="M84.9656 73.3793H81.1035V77.2413H84.9656V73.3793Z" fill="white"/>
<path d="M84.9656 77.2413H81.1035V81.1034H84.9656V77.2413Z" fill="white"/>
<path d="M84.9656 92.6897H81.1035V96.5518H84.9656V92.6897Z" fill="white"/>
<path d="M84.9656 100.414H81.1035V104.276H84.9656V100.414Z" fill="white"/>
<path d="M84.9656 108.138H81.1035V112H84.9656V108.138Z" fill="white"/>
<path d="M88.8274 34.7587H84.9653V38.6207H88.8274V34.7587Z" fill="white"/>
<path d="M88.8274 42.4828H84.9653V46.3449H88.8274V42.4828Z" fill="white"/>
<path d="M88.8274 50.2069H84.9653V54.069H88.8274V50.2069Z" fill="white"/>
<path d="M88.8274 54.069H84.9653V57.931H88.8274V54.069Z" fill="white"/>
<path d="M88.8274 57.931H84.9653V61.7931H88.8274V57.931Z" fill="white"/>
<path d="M88.8274 65.6552H84.9653V69.5172H88.8274V65.6552Z" fill="white"/>
<path d="M88.8274 73.3793H84.9653V77.2413H88.8274V73.3793Z" fill="white"/>
<path d="M88.8274 77.2413H84.9653V81.1034H88.8274V77.2413Z" fill="white"/>
<path d="M88.8274 84.9656H84.9653V88.8276H88.8274V84.9656Z" fill="white"/>
<path d="M88.8274 92.6897H84.9653V96.5518H88.8274V92.6897Z" fill="white"/>
<path d="M88.8274 108.138H84.9653V112H88.8274V108.138Z" fill="white"/>
<path d="M92.6897 38.6207H88.8276V42.4828H92.6897V38.6207Z" fill="white"/>
<path d="M92.6897 42.4828H88.8276V46.3449H92.6897V42.4828Z" fill="white"/>
<path d="M92.6897 46.3448H88.8276V50.2069H92.6897V46.3448Z" fill="white"/>
<path d="M92.6897 50.2069H88.8276V54.069H92.6897V50.2069Z" fill="white"/>
<path d="M92.6897 61.7931H88.8276V65.6552H92.6897V61.7931Z" fill="white"/>
<path d="M92.6897 65.6552H88.8276V69.5172H92.6897V65.6552Z" fill="white"/>
<path d="M92.6897 69.5172H88.8276V73.3793H92.6897V69.5172Z" fill="white"/>
<path d="M92.6897 73.3793H88.8276V77.2413H92.6897V73.3793Z" fill="white"/>
<path d="M92.6897 77.2413H88.8276V81.1034H92.6897V77.2413Z" fill="white"/>
<path d="M92.6897 92.6897H88.8276V96.5518H92.6897V92.6897Z" fill="white"/>
<path d="M92.6897 96.5518H88.8276V100.414H92.6897V96.5518Z" fill="white"/>
<path d="M96.5515 30.8966H92.6895V34.7587H96.5515V30.8966Z" fill="white"/>
<path d="M96.5515 38.6207H92.6895V42.4828H96.5515V38.6207Z" fill="white"/>
<path d="M96.5515 42.4828H92.6895V46.3449H96.5515V42.4828Z" fill="white"/>
<path d="M96.5515 54.069H92.6895V57.931H96.5515V54.069Z" fill="white"/>
<path d="M96.5515 69.5172H92.6895V73.3793H96.5515V69.5172Z" fill="white"/>
<path d="M96.5515 73.3793H92.6895V77.2413H96.5515V73.3793Z" fill="white"/>
<path d="M96.5515 77.2413H92.6895V81.1034H96.5515V77.2413Z" fill="white"/>
<path d="M96.5515 81.1035H92.6895V84.9656H96.5515V81.1035Z" fill="white"/>
<path d="M96.5515 84.9656H92.6895V88.8276H96.5515V84.9656Z" fill="white"/>
<path d="M96.5515 88.8276H92.6895V92.6897H96.5515V88.8276Z" fill="white"/>
<path d="M96.5515 92.6897H92.6895V96.5518H96.5515V92.6897Z" fill="white"/>
<path d="M96.5515 104.276H92.6895V108.138H96.5515V104.276Z" fill="white"/>
<path d="M96.5515 108.138H92.6895V112H96.5515V108.138Z" fill="white"/>
<path d="M100.414 34.7587H96.5518V38.6207H100.414V34.7587Z" fill="white"/>
<path d="M100.414 46.3448H96.5518V50.2069H100.414V46.3448Z" fill="white"/>
<path d="M100.414 61.7931H96.5518V65.6552H100.414V61.7931Z" fill="white"/>
<path d="M100.414 65.6552H96.5518V69.5172H100.414V65.6552Z" fill="white"/>
<path d="M100.414 88.8276H96.5518V92.6897H100.414V88.8276Z" fill="white"/>
<path d="M100.414 96.5518H96.5518V100.414H100.414V96.5518Z" fill="white"/>
<path d="M100.414 100.414H96.5518V104.276H100.414V100.414Z" fill="white"/>
<path d="M100.414 104.276H96.5518V108.138H100.414V104.276Z" fill="white"/>
<path d="M104.276 46.3448H100.414V50.2069H104.276V46.3448Z" fill="white"/>
<path d="M104.276 54.069H100.414V57.931H104.276V54.069Z" fill="white"/>
<path d="M104.276 61.7931H100.414V65.6552H104.276V61.7931Z" fill="white"/>
<path d="M104.276 69.5172H100.414V73.3793H104.276V69.5172Z" fill="white"/>
<path d="M104.276 73.3793H100.414V77.2413H104.276V73.3793Z" fill="white"/>
<path d="M104.276 77.2413H100.414V81.1034H104.276V77.2413Z" fill="white"/>
<path d="M104.276 81.1035H100.414V84.9656H104.276V81.1035Z" fill="white"/>
<path d="M104.276 104.276H100.414V108.138H104.276V104.276Z" fill="white"/>
<path d="M104.276 108.138H100.414V112H104.276V108.138Z" fill="white"/>
<path d="M108.138 30.8966H104.276V34.7587H108.138V30.8966Z" fill="white"/>
<path d="M108.138 38.6207H104.276V42.4828H108.138V38.6207Z" fill="white"/>
<path d="M108.138 65.6552H104.276V69.5172H108.138V65.6552Z" fill="white"/>
<path d="M108.138 84.9656H104.276V88.8276H108.138V84.9656Z" fill="white"/>
<path d="M108.138 88.8276H104.276V92.6897H108.138V88.8276Z" fill="white"/>
<path d="M108.138 96.5518H104.276V100.414H108.138V96.5518Z" fill="white"/>
<path d="M108.138 104.276H104.276V108.138H108.138V104.276Z" fill="white"/>
<path d="M108.138 108.138H104.276V112H108.138V108.138Z" fill="white"/>
<path d="M112 38.6207H108.138V42.4828H112V38.6207Z" fill="white"/>
<path d="M112 46.3448H108.138V50.2069H112V46.3448Z" fill="white"/>
<path d="M112 50.2069H108.138V54.069H112V50.2069Z" fill="white"/>
<path d="M112 54.069H108.138V57.931H112V54.069Z" fill="white"/>
<path d="M112 57.931H108.138V61.7931H112V57.931Z" fill="white"/>
<path d="M112 65.6552H108.138V69.5172H112V65.6552Z" fill="white"/>
<path d="M112 73.3793H108.138V77.2413H112V73.3793Z" fill="white"/>
<path d="M112 77.2413H108.138V81.1034H112V77.2413Z" fill="white"/>
<path d="M112 84.9656H108.138V88.8276H112V84.9656Z" fill="white"/>
<path d="M112 92.6897H108.138V96.5518H112V92.6897Z" fill="white"/>
<path d="M112 96.5518H108.138V100.414H112V96.5518Z" fill="white"/>
<path d="M112 100.414H108.138V104.276H112V100.414Z" fill="white"/>
<path d="M112 104.276H108.138V108.138H112V104.276Z" fill="white"/>
<path d="M0 0V27.0345H27.0345V0H0ZM3.86207 3.86207H23.1724V23.1724H3.86207V3.86207Z" fill="white"/>
<path d="M19.3103 7.72412H7.72412V19.3103H19.3103V7.72412Z" fill="white"/>
<path d="M112 0H84.9653V27.0345H112V0ZM108.138 3.86207V23.1724H88.8274V3.86207H108.138Z" fill="white"/>
<path d="M104.276 7.72412H92.6895V19.3103H104.276V7.72412Z" fill="white"/>
<path d="M0 112H27.0345V84.9656H0V112ZM3.86207 108.138V88.8276H23.1724V108.138H3.86207Z" fill="white"/>
<path d="M19.3103 92.6897H7.72412V104.276H19.3103V92.6897Z" fill="white"/>
</svg>
